<svg xmlns="http://www.w3.org/2000/svg" viewBox="0 0 32 32"><g data-name="Layer 6"><line x1="16" x2="16" y1="2.5" y2="29.5" fill="none" stroke="#000" stroke-linecap="round" stroke-linejoin="round"/><line x1="26.5" x2="5.5" y1="16" y2="16" fill="none" stroke="#000" stroke-linecap="round" stroke-linejoin="round"/><line x1="21.25" x2="10.75" y1="6.91" y2="25.09" fill="none" stroke="#000" stroke-linecap="round" stroke-linejoin="round"/><line x1="10.75" x2="21.25" y1="6.91" y2="25.09" fill="none" stroke="#000" stroke-linecap="round" stroke-linejoin="round"/><line x1="4.31" x2="27.69" y1="9.25" y2="22.75" fill="none" stroke="#000" stroke-linecap="round" stroke-linejoin="round"/><line x1="27.69" x2="4.31" y1="9.25" y2="22.75" fill="none" stroke="#000" stroke-linecap="round" stroke-linejoin="round"/><polygon fill="none" stroke="#000" stroke-linecap="round" stroke-linejoin="round" points="16 11.03 17.61 10 18.48 11.7 20.39 11.61 20.3 13.52 22 14.39 20.97 16 22 17.61 20.3 18.48 20.39 20.39 18.48 20.3 17.61 22 16 20.97 14.39 22 13.52 20.3 11.61 20.39 11.7 18.48 10 17.61 11.03 16 10 14.39 11.7 13.52 11.61 11.61 13.52 11.7 14.39 10 16 11.03"/><polyline fill="none" stroke="#000" stroke-linecap="round" stroke-linejoin="round" points="13.66 5.45 16 6.95 18.34 5.45"/><polyline fill="none" stroke="#000" stroke-linecap="round" stroke-linejoin="round" points="14.44 3.64 16 4.64 17.56 3.64"/><polyline fill="none" stroke="#000" stroke-linecap="round" stroke-linejoin="round" points="18.34 26.55 16 25.05 13.66 26.55"/><polyline fill="none" stroke="#000" stroke-linecap="round" stroke-linejoin="round" points="17.56 28.36 16 27.36 14.44 28.36"/><polyline fill="none" stroke="#000" stroke-linecap="round" stroke-linejoin="round" points="5.69 12.75 8.16 11.47 8.03 8.7"/><polyline fill="none" stroke="#000" stroke-linecap="round" stroke-linejoin="round" points="4.52 11.17 6.16 10.32 6.08 8.47"/><polyline fill="none" stroke="#000" stroke-linecap="round" stroke-linejoin="round" points="26.31 19.25 23.84 20.53 23.97 23.3"/><polyline fill="none" stroke="#000" stroke-linecap="round" stroke-linejoin="round" points="27.48 20.83 25.84 21.68 25.92 23.53"/><polyline fill="none" stroke="#000" stroke-linecap="round" stroke-linejoin="round" points="26.31 12.75 23.84 11.47 23.97 8.7"/><polyline fill="none" stroke="#000" stroke-linecap="round" stroke-linejoin="round" points="27.48 11.17 25.84 10.32 25.92 8.47"/><polyline fill="none" stroke="#000" stroke-linecap="round" stroke-linejoin="round" points="5.69 19.25 8.16 20.53 8.03 23.3"/><polyline fill="none" stroke="#000" stroke-linecap="round" stroke-linejoin="round" points="4.52 20.83 6.16 21.68 6.08 23.53"/><polyline fill="none" stroke="#000" stroke-linecap="round" stroke-linejoin="round" points="25 14.39 23.97 16 25 17.61"/><polyline fill="none" stroke="#000" stroke-linecap="round" stroke-linejoin="round" points="7 17.61 8.03 16 7 14.39"/><polyline fill="none" stroke="#000" stroke-linecap="round" stroke-linejoin="round" points="25 14.39 23.97 16 25 17.61"/><polyline fill="none" stroke="#000" stroke-linecap="round" stroke-linejoin="round" points="7 17.61 8.03 16 7 14.39"/><polyline fill="none" stroke="#000" stroke-linecap="round" stroke-linejoin="round" points="19.11 7.4 19.98 9.1 21.89 9.01"/><polyline fill="none" stroke="#000" stroke-linecap="round" stroke-linejoin="round" points="12.89 24.6 12.02 22.9 10.11 22.99"/><polyline fill="none" stroke="#000" stroke-linecap="round" stroke-linejoin="round" points="12.89 7.4 12.02 9.1 10.11 9.01"/><polyline fill="none" stroke="#000" stroke-linecap="round" stroke-linejoin="round" points="19.11 24.6 19.98 22.9 21.89 22.99"/><circle cx="3.5" cy="16" r=".5"/><circle cx="28.5" cy="16" r=".5"/><circle cx="9.75" cy="26.83" r=".5"/><circle cx="22.25" cy="5.17" r=".5"/><circle cx="22.25" cy="26.83" r=".5"/><circle cx="9.75" cy="5.17" r=".5"/></g></svg>